<svg xmlns="http://www.w3.org/2000/svg" width="106" height="15" viewBox="0 0 106 15">
    <g fill="#221F4D" fill-rule="evenodd">
        <path fill-rule="nonzero" d="M6.417 1.75H3.833L0 12.083h2.167L3 9.75h4.167L8 12.083h2.25L6.417 1.75zM3.5 8.25L5 3.5h.083l1.5 4.75H3.5zM18.417 4.833H16.75c.25.25.667.667.667 1.584 0 1.083-.75 2.5-3.334 2.5-.25 0-.416 0-.5-.084-.083.084-.25.25-.25.5 0 .167.084.25.5.334l2.5.666c1 .25 1.834.834 1.834 2.084 0 1.916-2 2.5-3.917 2.5-2.333 0-3.75-.834-3.75-2.167 0-1.333 1-1.833 1.583-2.083-.333-.167-.5-.584-.5-.917 0-.417.334-1 .834-1.25-1.334-.583-1.667-1.25-1.667-2.417 0-1.5 1.25-2.666 3.083-2.666.5 0 1.084.083 1.5.166h3v1.25h.084zm-5.25 6.417c-.5.333-.917.667-.917 1.333 0 .834 1 1.084 2.083 1.084 1.334 0 1.834-.417 1.834-1 0-.5-.417-.75-.917-.834l-2.083-.583zm2.416-5c0-.917-.75-1.333-1.416-1.333-1 0-1.5.5-1.5 1.333s.666 1.333 1.5 1.333c.833 0 1.416-.583 1.416-1.333zM19.25 1.167h2v1.5h-2v-1.5zm0 2.5h2v8.416h-2V3.667zM23 1.167h2v10.916h-2zM26.75 1.167h2v1.5h-2v-1.5zm0 2.5h2v8.416h-2V3.667zM34.833 5.167h-2v4c0 .833.084 1.333 1 1.333.25 0 .667-.083 1-.167v1.584c-.25.083-.916.25-1.583.25-1.917 0-2.417-1.25-2.417-2.667V5.167h-1.25V3.75h1.25V2.083l2-.833v2.583h2v1.334zM36.083 13.167c.25.083.5.166.834.166.416 0 .833-.083 1.333-1.416l-2.917-8.25H37.5l1.333 4c.25.666.25 1.166.417 2.083h.083c.084-.833.25-1.417.417-2l1.333-4.083h2l-3.083 9c-.417 1.5-1.083 2.333-2.5 2.333a5.438 5.438 0 0 1-1.417-.167v-1.666zM48 2h.667v12.333H48zM101.917.333h-.584V0h1.584v.333h-.584v1.75h-.416V.333zM103.667.75c-.084-.167-.084-.333-.084-.417v1.75h-.416V0h.666l.417 1.167c0 .083.083.333.083.333 0-.083.084-.25.084-.333L104.833 0h.667v2.083h-.417v-1.5-.25c0 .084-.083.25-.083.417l-.5 1.333h-.333l-.5-1.333z"/>
        <path d="M58.462 12.62H53V3.136h5.462v1.648h-3.451v2.082h3.211v1.648h-3.211v2.446h3.451v1.66zm7.389-9.484h2.03l-3.224 9.484h-2.192l-3.218-9.484h2.03l1.784 5.644c.1.333.203.721.309 1.164.105.444.171.752.197.925.048-.398.21-1.094.487-2.09l1.797-5.643zm8.686 9.484h-5.462V3.136h5.462v1.648h-3.451v2.082h3.21v1.648h-3.21v2.446h3.45v1.66zm10.392 0h-2.556l-4.125-7.174h-.059c.082 1.267.123 2.17.123 2.711v4.463h-1.797V3.136h2.537l4.12 7.104h.045a57.511 57.511 0 0 1-.098-2.615V3.136h1.81v9.484zm6.046 0h-2.01V4.81h-2.576V3.136h7.161V4.81h-2.575v7.81zm9.633-2.633c0 .856-.308 1.53-.924 2.023-.616.493-1.474.74-2.572.74-1.012 0-1.907-.19-2.686-.57v-1.87c.64.286 1.182.487 1.625.604.443.117.849.175 1.216.175.442 0 .78-.084 1.016-.253.235-.168.353-.42.353-.752a.83.83 0 0 0-.155-.496 1.742 1.742 0 0 0-.458-.419c-.2-.134-.61-.348-1.23-.642-.579-.273-1.013-.534-1.303-.785a2.947 2.947 0 0 1-.694-.876c-.173-.333-.26-.722-.26-1.167 0-.84.285-1.499.853-1.979.57-.48 1.355-.72 2.359-.72.493 0 .963.058 1.41.175.448.117.916.281 1.405.493l-.649 1.564a9.491 9.491 0 0 0-1.255-.435 4.04 4.04 0 0 0-.976-.123c-.38 0-.673.088-.876.266a.877.877 0 0 0-.305.694c0 .177.041.332.123.464.082.131.213.259.393.382.18.124.604.345 1.274.665.887.424 1.495.849 1.823 1.275.329.426.493.948.493 1.567z"/>
    </g>
</svg>
