<svg xmlns="http://www.w3.org/2000/svg" width="95" height="15" viewBox="0 0 95 15">
    <g fill="#221F4D" fill-rule="evenodd">
        <path d="M49.44 13.066h.66V.402h-.66zM55.495 1.881h1.976v5.3c0 .84.024 1.386.073 1.635.085.4.286.722.604.964.318.243.753.364 1.305.364.56 0 .983-.115 1.268-.344.285-.229.456-.51.514-.844.058-.334.087-.888.087-1.662V1.881h1.975v5.14c0 1.174-.053 2.004-.16 2.489a2.755 2.755 0 0 1-.59 1.228c-.287.334-.671.6-1.152.798-.48.198-1.108.297-1.882.297-.934 0-1.643-.108-2.126-.324-.483-.216-.864-.496-1.144-.841a2.696 2.696 0 0 1-.554-1.085c-.13-.56-.194-1.388-.194-2.482V1.88zm9.905 9.785V1.88h1.922l4.005 6.534V1.881h1.835v9.785H71.18l-3.945-6.38v6.38H65.4zm9.791 0V1.88h1.976v9.785H75.19zm6.06 0v-8.13h-2.903V1.881h7.776v1.655h-2.897v8.13h-1.976zm6.148 0V1.88h7.255v1.655h-5.28v2.17h4.912v1.648h-4.912v2.663h5.466v1.649H87.4zM16.046 5.587c0-.986-.812-1.363-1.494-1.363-1.073 0-1.58.551-1.58 1.363 0 .842.652 1.378 1.551 1.378.914 0 1.523-.551 1.523-1.378zm-2.45 5.177c-.494.334-.914.725-.914 1.364 0 .826 1 1.145 2.117 1.145 1.407 0 1.929-.435 1.929-1.073 0-.522-.406-.74-.987-.884l-2.145-.552zm5.365-6.598h-1.697c.232.232.667.668.667 1.61 0 1.116-.797 2.582-3.436 2.582-.217 0-.42-.03-.551-.059-.116.116-.218.247-.218.493 0 .203.116.276.493.378l2.61.71c1.03.275 1.9.884 1.9 2.131 0 1.973-2.03 2.596-4.002 2.596-2.437 0-3.872-.899-3.872-2.233 0-1.335 1.03-1.856 1.639-2.16-.378-.204-.509-.624-.509-.914 0-.464.363-1.03.842-1.247-1.334-.638-1.74-1.306-1.74-2.466 0-1.537 1.29-2.755 3.176-2.755.55 0 1.101.1 1.565.174h3.133v1.16zM19.885 11.679h2.089V3.006h-2.089v8.673zm0-9.718h2.089V.411h-2.089v1.55zM23.727 11.678h2.088V.41h-2.088zM27.568 11.679h2.09V3.006h-2.09v8.673zm0-9.718h2.09V.411h-2.09v1.55zM35.867 4.49h-2.03v4.094c0 .9.043 1.362 1.044 1.362.276 0 .71-.044 1.016-.174v1.64c-.248.101-.93.261-1.626.261-1.957 0-2.523-1.305-2.523-2.77V4.49h-1.247V3.011h1.247v-1.75l2.09-.87v2.62h2.03v1.48zM37.22 12.795c.261.073.494.16.856.16.406 0 .87-.06 1.392-1.422l-3.046-8.527h2.248l1.334 4.118c.218.667.29 1.233.464 2.132h.088c.087-.87.246-1.45.449-2.073l1.334-4.177h2.089l-3.147 9.267c-.522 1.552-1.19 2.335-2.669 2.335a5 5 0 0 1-1.493-.204l.101-1.61zM3.962 1.017L.018 11.677h2.19l.856-2.406h4.263l.827 2.407h2.277L6.622 1.018h-2.66zm1.22 1.804h.072l1.552 4.854H3.615L5.18 2.821z"/>
    </g>
</svg>
