<?xml version="1.0" encoding="utf-8"?>
<!-- Generator: Adobe Illustrator 23.0.4, SVG Export Plug-In . SVG Version: 6.00 Build 0)  -->
<svg version="1.1" id="Layer_1" xmlns="http://www.w3.org/2000/svg" xmlns:xlink="http://www.w3.org/1999/xlink" x="0px" y="0px"
	 viewBox="0 0 136.1 18" style="enable-background:new 0 0 136.1 18;" xml:space="preserve">
<style type="text/css">
	.st0{fill:#221F4D;}
</style>
<g>
	<path id="XMLID_593_" class="st0" d="M8,2.6H5.1L0.8,14.2h2.4l0.9-2.6h4.6l0.9,2.6h2.5L8,2.6z M4.7,9.8l1.7-5.3c0,0,0.1,0,0.1,0
		l1.7,5.3H4.7z"/>
	<path id="XMLID_589_" class="st0" d="M21.4,6h-1.8c0.3,0.3,0.7,0.7,0.7,1.8c0,1.2-0.9,2.8-3.7,2.8c-0.2,0-0.5,0-0.6-0.1
		c-0.1,0.1-0.2,0.3-0.2,0.5c0,0.2,0.1,0.3,0.5,0.4l2.8,0.8c1.1,0.3,2.1,1,2.1,2.3c0,2.1-2.2,2.8-4.4,2.8c-2.7,0-4.2-1-4.2-2.4
		s1.1-2,1.8-2.4c-0.4-0.2-0.6-0.7-0.6-1c0-0.5,0.4-1.1,0.9-1.4c-1.5-0.7-1.9-1.4-1.9-2.7c0-1.7,1.4-3,3.5-3c0.6,0,1.2,0.1,1.7,0.2
		h3.4V6z M15.6,13.2c-0.5,0.4-1,0.8-1,1.5c0,0.9,1.1,1.2,2.3,1.2c1.5,0,2.1-0.5,2.1-1.2c0-0.6-0.4-0.8-1.1-1L15.6,13.2z M18.3,7.6
		c0-1.1-0.9-1.5-1.6-1.5c-1.2,0-1.7,0.6-1.7,1.5c0,0.9,0.7,1.5,1.7,1.5C17.6,9.1,18.3,8.5,18.3,7.6z"/>
	<path id="XMLID_586_" class="st0" d="M22.4,1.9h2.3v1.7h-2.3V1.9z M22.4,4.8h2.3v9.4h-2.3V4.8z"/>
	<path id="XMLID_584_" class="st0" d="M26.6,1.9h2.3v12.3h-2.3V1.9z"/>
	<path id="XMLID_580_" class="st0" d="M30.8,1.9h2.3v1.7h-2.3V1.9z M30.8,4.8h2.3v9.4h-2.3V4.8z"/>
	<path id="XMLID_576_" class="st0" d="M39.8,6.4h-2.2v4.5c0,1,0,1.5,1.1,1.5c0.3,0,0.8,0,1.1-0.2v1.8c-0.3,0.1-1,0.3-1.8,0.3
		c-2.1,0-2.7-1.4-2.7-3V6.4H34V4.8h1.4V2.9l2.3-0.9v2.9h2.2V6.4z"/>
	<path id="XMLID_574_" class="st0" d="M41.3,15.4c0.3,0.1,0.5,0.2,0.9,0.2c0.4,0,0.9-0.1,1.5-1.5l-3.3-9.3h2.4l1.5,4.5
		c0.2,0.7,0.3,1.3,0.5,2.3h0.1c0.1-0.9,0.3-1.6,0.5-2.3l1.5-4.5h2.3l-3.4,10.1c-0.6,1.7-1.3,2.5-2.9,2.5c-0.8,0-1.2-0.1-1.6-0.2
		L41.3,15.4z"/>
	<path id="XMLID_561_" class="st0" d="M54.6,1.9h0.7v13.8h-0.7V1.9z"/>
	<g>
		<path class="st0" d="M131.4,1h-0.6V0.6h1.8V1h-0.6v1.9h-0.5V1z"/>
		<path class="st0" d="M133.3,1.4c-0.1-0.2-0.1-0.4-0.1-0.4h0c0,0.1,0,0.2,0,0.3v1.7h-0.5V0.6h0.8l0.4,1.3c0,0.1,0.1,0.3,0.1,0.4h0
			c0-0.1,0.1-0.3,0.1-0.4l0.4-1.3h0.8v2.3h-0.5V1.2c0-0.1,0-0.2,0-0.3h0c0,0.1-0.1,0.3-0.1,0.4l-0.5,1.5h-0.4L133.3,1.4z"/>
	</g>
	<g>
		<g>
			<path class="st0" d="M60.6,3.5h4.3c2.6,0,3.7,1.5,3.7,3.3c0,2.5-1.9,3.5-3.7,3.5h-2v4.1h-2.3V3.5z M64.4,8.6c1.3,0,2-0.7,2-1.9
				c0-0.8-0.4-1.6-1.5-1.6h-2v3.4H64.4z"/>
			<path class="st0" d="M74.1,9.8h-1.7v4.5h-2.3V3.5h4.6C77,3.5,78,4.8,78,6.6c0,1.5-0.8,2.3-1.9,2.7l2.5,5h-2.6L74.1,9.8z
				 M74.1,8.2c1,0,1.6-0.4,1.6-1.5c0-1.1-0.5-1.5-1.4-1.5h-2v3H74.1z"/>
			<path class="st0" d="M79.4,8.9c0-3.7,2.1-5.7,5.1-5.7s5.1,1.9,5.1,5.7s-2.1,5.7-5.1,5.7S79.4,12.6,79.4,8.9z M87.2,8.9
				c0-2.8-1.1-3.9-2.7-3.9s-2.7,1.2-2.7,3.9s1.1,3.9,2.7,3.9S87.2,11.7,87.2,8.9z"/>
			<path class="st0" d="M91.2,3.5h4.3c2.1,0,4.9,1.2,4.9,5.5c0,3.6-2.2,5.4-5.7,5.4h-3.6V3.5z M93.5,12.6h1.4C97,12.6,98,11,98,8.9
				c0-1.9-0.8-3.7-3.1-3.7h-1.4V12.6z"/>
			<path class="st0" d="M110.8,3.5v6.6c0,3-1.5,4.5-4.5,4.5c-2.7,0-4.2-1.6-4.2-4.5V3.5h2.2v6.6c0,1.7,0.5,2.8,2.2,2.8
				s2.2-1.1,2.2-2.8V3.5H110.8z"/>
			<path class="st0" d="M119.5,6.8c-0.1-1-0.9-1.8-1.9-1.8c-1.6,0-2.7,1.2-2.7,3.9s1,3.9,2.5,3.9c1.5,0,2.1-1.2,2.3-1.9l2.1,0.5
				c-0.1,0.5-0.8,3.2-4.5,3.2c-2.8,0-4.7-1.9-4.7-5.7s2.1-5.7,5.1-5.7c2.3,0,3.5,1.2,4,3.1L119.5,6.8z"/>
			<path class="st0" d="M125.4,5.3h-3V3.5h8.2v1.8h-3v9h-2.3V5.3z"/>
		</g>
	</g>
</g>
</svg>
