<svg xmlns="http://www.w3.org/2000/svg" width="162" height="26" viewBox="0 0 162 26">
    <g fill="#221F4D" fill-rule="evenodd">
        <path d="M28.2 9.666c0-1.707-1.427-2.359-2.625-2.359-1.886 0-2.777.954-2.777 2.359 0 1.455 1.146 2.384 2.726 2.384 1.607 0 2.676-.954 2.676-2.384zm-4.306 8.955c-.867.578-1.606 1.255-1.606 2.36 0 1.429 1.759 1.981 3.72 1.981 2.473 0 3.39-.753 3.39-1.856 0-.903-.713-1.28-1.733-1.53l-3.77-.955zm9.429-11.415H30.34c.408.403 1.173 1.156 1.173 2.785 0 1.932-1.402 4.467-6.04 4.467-.382 0-.74-.05-.969-.1-.203.2-.383.426-.383.852 0 .352.205.477.868.653l4.588 1.229c1.809.476 3.337 1.53 3.337 3.687 0 3.413-3.566 4.491-7.034 4.491-4.281 0-6.804-1.555-6.804-3.862 0-2.31 1.809-3.213 2.88-3.739-.664-.352-.893-1.08-.893-1.58 0-.803.637-1.782 1.479-2.158-2.345-1.103-3.059-2.259-3.059-4.265 0-2.66 2.27-4.767 5.583-4.767.967 0 1.935.175 2.75.301h5.506v2.006zM34.947 20.204h3.671V5.2h-3.67v15.003zm0-16.81h3.671V.71h-3.67v2.683zM41.699 20.202h3.67V.71H41.7zM48.45 20.204h3.671V5.2h-3.67v15.003zm0-16.81h3.671V.71h-3.67v2.683zM63.036 7.768h-3.569v7.083c0 1.556.076 2.355 1.835 2.355.484 0 1.25-.076 1.785-.301v2.838c-.435.175-1.632.451-2.856.451-3.44 0-4.434-2.257-4.434-4.79V7.767h-2.192V5.209h2.192V2.181l3.67-1.506v4.534h3.569v2.559zM65.413 22.134c.459.127.867.277 1.504.277.714 0 1.528-.101 2.447-2.458L64.011 5.2h3.95l2.345 7.124c.383 1.154.51 2.133.816 3.688h.154c.152-1.505.433-2.509.789-3.587L74.41 5.2h3.67l-5.53 16.03c-.918 2.686-2.09 4.04-4.69 4.04-1.25 0-1.988-.175-2.625-.352l.178-2.785zM86.89 22.604h1.158V.694H86.89zM6.962 1.76L.032 20.202H3.88l1.504-4.163h7.493l1.453 4.163h4.002L11.638 1.76H6.962zm2.144 3.12h.127l2.728 8.398H6.353L9.106 4.88zM97.53 20.175V3.538h11.587v2.815h-8.174v3.938H108v2.814h-7.056v7.07h-3.412zm14.412 0V3.538h7.182c1.807 0 3.119.15 3.937.448.819.3 1.474.83 1.966 1.595.492.764.738 1.638.738 2.621 0 1.249-.373 2.28-1.118 3.093-.746.813-1.86 1.326-3.344 1.538.738.423 1.347.889 1.828 1.396.48.506 1.128 1.407 1.942 2.7l2.064 3.246h-4.081l-2.468-3.62c-.876-1.294-1.475-2.109-1.798-2.446-.323-.336-.665-.567-1.026-.692s-.934-.187-1.718-.187h-.692v6.945h-3.412zm3.412-9.6h2.525c1.637 0 2.66-.069 3.067-.205.407-.136.726-.37.957-.704.23-.332.346-.749.346-1.248 0-.56-.152-1.012-.456-1.356-.303-.344-.732-.562-1.285-.653-.277-.037-1.107-.056-2.49-.056h-2.664v4.221zm13.581 9.6V3.538h5.108l3.066 11.349 3.033-11.349h5.118v16.637h-3.17V7.08l-3.355 13.096h-3.286L132.106 7.08v13.096h-3.17zm18.85-5.413l3.32-.318c.2 1.097.606 1.903 1.217 2.417.61.515 1.435.772 2.473.772 1.099 0 1.927-.229 2.484-.686.558-.458.836-.993.836-1.606a1.5 1.5 0 0 0-.351-1.005c-.235-.276-.644-.516-1.228-.72-.4-.136-1.31-.379-2.733-.727-1.829-.446-3.112-.994-3.85-1.645-1.038-.916-1.557-2.032-1.557-3.348 0-.847.244-1.64.732-2.378.488-.737 1.192-1.299 2.11-1.685.919-.386 2.027-.579 3.326-.579 2.122 0 3.718.458 4.79 1.374 1.073.915 1.636 2.137 1.69 3.665l-3.413.148c-.146-.855-.46-1.47-.94-1.844-.48-.375-1.2-.562-2.161-.562-.992 0-1.768.2-2.33.601-.36.258-.541.602-.541 1.033 0 .393.169.73.507 1.01.43.356 1.476.726 3.136 1.112 1.66.386 2.888.785 3.684 1.198.795.412 1.418.976 1.867 1.69.45.715.675 1.599.675 2.65 0 .954-.27 1.846-.807 2.679-.538.832-1.3 1.45-2.283 1.855-.984.405-2.21.607-3.678.607-2.136 0-3.777-.486-4.923-1.458-1.145-.972-1.829-2.389-2.052-4.25z"/>
    </g>
</svg>
