<svg xmlns="http://www.w3.org/2000/svg" width="226" height="26" viewBox="0 0 226 26">
    <g fill="#221F4D" fill-rule="nonzero">
        <path d="M11.33 3.033H6.767L0 20.944h3.826l1.47-4.044h7.358l1.471 4.044h3.973l-6.769-17.91zM6.18 14.3l2.648-8.233h.147l2.649 8.233H6.18zM32.517 8.378h-2.943c.442.433 1.177 1.155 1.177 2.744 0 1.878-1.324 4.334-5.885 4.334-.442 0-.736 0-.883-.145-.147.145-.441.433-.441.867 0 .289.147.433.882.578l4.415 1.155c1.765.433 3.237 1.445 3.237 3.611 0 3.322-3.532 4.334-6.916 4.334-4.12 0-6.62-1.445-6.62-3.756s1.765-3.178 2.795-3.611c-.589-.289-.883-1.011-.883-1.589 0-.722.588-1.733 1.471-2.167-2.354-1.01-2.943-2.166-2.943-4.189 0-2.6 2.207-4.622 5.444-4.622.883 0 1.913.145 2.649.29h5.297v2.166h.147zM23.247 19.5c-.882.578-1.618 1.156-1.618 2.311 0 1.445 1.766 1.878 3.678 1.878 2.354 0 3.237-.722 3.237-1.733 0-.867-.735-1.3-1.618-1.445L23.247 19.5zm4.267-8.667c0-1.589-1.324-2.31-2.501-2.31-1.766 0-2.648.866-2.648 2.31 0 1.445 1.177 2.311 2.648 2.311s2.501-1.01 2.501-2.31zM33.988 2.022h3.532v2.6h-3.532v-2.6zm0 4.334h3.532v14.588h-3.532V6.356zM40.61 2.022h3.53v18.922h-3.53zM47.23 2.022h3.532v2.6H47.23v-2.6zm0 4.334h3.532v14.588H47.23V6.356zM61.503 8.956H57.97v6.933c0 1.444.147 2.311 1.766 2.311.441 0 1.177-.144 1.766-.289v2.745a10.13 10.13 0 0 1-2.796.433c-3.384 0-4.267-2.167-4.267-4.622V8.956h-2.207V6.5h2.207V3.611l3.531-1.444v4.477h3.532v2.312zM63.71 22.822c.441.145.882.29 1.471.29.736 0 1.471-.145 2.354-2.456l-5.15-14.3h3.826l2.354 6.933c.442 1.155.442 2.022.736 3.611h.147c.147-1.444.441-2.456.736-3.467l2.354-7.077h3.531l-5.444 15.6c-.736 2.6-1.913 4.044-4.414 4.044-1.177 0-1.913-.144-2.501-.289v-2.889zM84.75 2.022h1.177V23.4H84.75zM218.938.578h-1.03V0h2.795v.578h-1.03V3.61h-.736V.578zM221.88 1.3c-.147-.289-.147-.578-.147-.722V3.61h-.736V0h1.177l.736 2.022c0 .145.147.578.147.578 0-.144.147-.433.147-.578L223.94 0h1.177v3.611h-.735v-2.6-.433c0 .144-.148.433-.148.722l-.882 2.311h-.589L221.88 1.3zM94.46 4.478h3.532v6.644h6.621V4.478h3.532v16.755h-3.532v-7.51h-6.62v7.51H94.46zM116.531 4.478h4.561l6.18 16.755h-3.678l-1.472-3.9h-7.062l-1.471 3.9h-3.679l6.621-16.755zm4.709 10.255l-1.913-5.344c-.147-.722-.442-1.589-.589-2.311h-.147c-.147.722-.294 1.589-.588 2.31l-1.913 5.345h5.15zM135.365 14.3h-2.649v6.933h-3.531V4.478h7.21c3.678 0 5.296 2.022 5.296 4.91 0 2.312-1.177 3.468-2.942 4.19l3.825 7.655h-3.972l-3.237-6.933zm.147-2.6c1.618 0 2.501-.578 2.501-2.311s-.883-2.311-2.207-2.311h-3.09V11.7h2.796zM149.048 10.256c-.441-1.156-.736-2.745-.883-3.178h-.147v14.3h-3.237v-16.9h5.591l3.237 9.389c.295 1.01.589 2.31.736 2.889h.147c.147-.578.442-2.023.736-2.89l3.237-9.388h5.591v16.755h-3.237V8.811 6.933h-.441c0 .434-.442 2.167-.883 3.178l-3.826 10.978h-2.795l-3.826-10.833zM166.41 12.856c0-5.778 3.237-8.812 7.945-8.812 4.709 0 7.946 3.034 7.946 8.812 0 5.777-3.237 8.81-7.946 8.81-4.708 0-7.945-3.033-7.945-8.81zm12.212 0c0-4.334-1.618-6.067-4.267-6.067-2.648 0-4.266 1.878-4.266 6.067 0 4.333 1.618 6.066 4.266 6.066 2.649 0 4.267-1.878 4.267-6.066zM185.096 4.478h4.562l4.56 8.089c.884 1.589 1.914 3.9 2.208 4.91h.147c-.147-.866-.147-2.888-.147-4.621V4.478h3.384v16.755h-4.708l-5.297-9.533c-.589-1.011-1.177-2.456-1.472-3.467h-.147c0 1.156.147 2.456.147 3.9v9.245h-3.384v-16.9h.147zM207.755 14.733l-6.18-10.255h4.267l2.943 5.344c.294.578.589 1.3.883 2.022.147-.577.589-1.444.883-2.022l2.942-5.344h3.973l-6.18 10.255v6.5h-3.53v-6.5z"/>
    </g>
</svg>
